<svg xmlns="http://www.w3.org/2000/svg" viewBox="0 0 100 100" class="piece-svg piece-bQ" role="img" aria-label="Dame — Résistance">
  <defs>
    <linearGradient id="cc-bQ-g" x1="0" x2="1" y1="0" y2="0">
      <stop offset="0" stop-color="#1c100a"/><stop offset="0.42" stop-color="#5a3622"/><stop offset="1" stop-color="#1c100a"/>
    </linearGradient>
    <radialGradient id="cc-bQ-glow" cx="0.5" cy="0.5" r="0.5">
      <stop offset="0" stop-color="#f2b34a" stop-opacity="0.9"/><stop offset="1" stop-color="#e8822a" stop-opacity="0"/>
    </radialGradient>
  </defs>
  <g id="socle">
    <ellipse cx="50" cy="90" rx="31" ry="5.5" fill="#0d0805" opacity="0.35"/>
    <path d="M21 89 L26 80 L74 80 L79 89 Z" fill="url(#cc-bQ-g)" stroke="#0d0805" stroke-width="2" stroke-linejoin="round"/>
    <rect x="29" y="74" width="42" height="7" rx="2" fill="url(#cc-bQ-g)" stroke="#0d0805" stroke-width="2"/>
    <rect x="29" y="76.5" width="42" height="2" fill="#f2b34a" opacity="0.8"/>
  </g>
  <g id="corps">
    <path d="M37 74 C37 62 40 48 43 40 L57 40 C60 48 63 62 63 74 Z"
      fill="url(#cc-bQ-g)" stroke="#0d0805" stroke-width="2" stroke-linejoin="round"/>
    <circle cx="50" cy="31" r="10" fill="url(#cc-bQ-g)" stroke="#0d0805" stroke-width="2"/>
  </g>
  <g id="embleme">
    <path d="M38 31 C35 13 65 13 62 31 C56 27 44 27 38 31 Z" fill="#e8822a" stroke="#0d0805" stroke-width="2" stroke-linejoin="round"/>
    <path d="M42 18 V29 M50 15 V27 M58 18 V29 M39 23 H61" stroke="#f2b34a" stroke-width="1.3" opacity="0.85"/>
    <path d="M56 16 C58 6 68 6 66 13 C64 18 59 17 56 16 Z M56 16 C62 14 70 18 66 22 C62 24 58 20 56 16 Z" fill="#e8822a" stroke="#0d0805" stroke-width="1.8" stroke-linejoin="round"/>
    <circle cx="57" cy="16" r="2.4" fill="#f2b34a" stroke="#0d0805" stroke-width="1"/>
  </g>
</svg>
